# xmcd
# Copyright (C) 1995-1998 Ti Kan
#
# Track frame offsets:
#       151
#       19471
#       31185
#       45342
#       54133
#       69187
#       78355
#       94319
#       121430
#       135587
#       154375
#       159348
#       170909
#       177451
#       190517
#       201727
#       224960
#
# Disc length: 3260 seconds
#
# Revision: 0
# Processed by: cddbd v1.5.1PL0 Copyright (c) Steve Scherf et al.
# Submitted via: CD-Transfer v1.0
#
DISCID=f30cba11
DTITLE=Calexico - The Black Light
DYEAR=04
DGENRE=
TTITLE0=Gypsy's Curse
TTITLE1=Fake Fur
TTITLE2=The Ride
TTITLE3=Where Water Flows
TTITLE4=The Black Light
TTITLE5=Sideshow
TTITLE6=Chach
TTITLE7=Missing
TTITLE8=Minas De Cobre
TTITLE9=Over Your Shoulder
TTITLE10=Vinegaroon
TTITLE11=Trigger
TTITLE12=Sprawl
TTITLE13=Stray
TTITLE14=Old Man Waltz
TTITLE15=Bloodflow
TTITLE16=Frontera
EXTD=
EXTT0=
EXTT1=
EXTT2=
EXTT3=
EXTT4=
EXTT5=
EXTT6=
EXTT7=
EXTT8=
EXTT9=
EXTT10=
EXTT11=
EXTT12=
EXTT13=
EXTT14=
EXTT15=
EXTT16=
PLAYORDER=
